# xmcd CD database file
#
# Track frame offsets:
#	150
#	17412
#	30390
#	45630
#	61035
#	73107
#	92402
#	102607
#	126327
#	139385
#	150007
#	173642
#	189184
#	209605
#	227337
#	254400
#	264315
#
# Disc length: 3752 seconds
#
# Revision: 0
# Processed by: cddbd v1.4PL0 Copyright (c) Steve Scherf et al.
# Submitted via: CDex 1.50
#
DISCID=d70ea611
DTITLE=Laura Fygi - At Ronnie Scott's
DYEAR=2003
DGENRE=Jazz
TTITLE0=That Old Feeling
TTITLE1=All of Me
TTITLE2=Guess Who I Saw Today
TTITLE3=Don't It Make My Brown Eyes Blue
TTITLE4=I Will Wait For You
TTITLE5=Corcovado
TTITLE6=Orange Coloured Sky
TTITLE7=Goodmorning Heartache
TTITLE8=Diamonds Are A Girl's Best Friend
TTITLE9=For Me, Formidable
TTITLE10=Les Feuilles Mortes (Autumn Leaves)
TTITLE11=Just One Of Those Things
TTITLE12=The Nearness Of You
TTITLE13=Almost Like Being In Love
TTITLE14=Heatwave Medley
TTITLE15=I Love You For Sentimental Reasons
TTITLE16=What Are You Doing The Rest Of Your Life
EXTD=YEAR: 2003
EXTT0=
EXTT1=
EXTT2=
EXTT3=
EXTT4=
EXTT5=
EXTT6=
EXTT7=
EXTT8=
EXTT9=
EXTT10=
EXTT11=
EXTT12=
EXTT13=
EXTT14=
EXTT15=
EXTT16=
PLAYORDER=
